<?xml version="1.0" encoding="UTF-8" standalone="no"?>
<svg width="235px" height="112px" viewBox="0 0 235 112" version="1.1" xmlns="http://www.w3.org/2000/svg" xmlns:xlink="http://www.w3.org/1999/xlink" xmlns:sketch="http://www.bohemiancoding.com/sketch/ns">
    <!-- Generator: Sketch 3.4.4 (17249) - http://www.bohemiancoding.com/sketch -->
    <title>beings</title>
    <desc>Created with Sketch.</desc>
    <defs></defs>
    <g id="Page-1" stroke="none" stroke-width="1" fill="none" fill-rule="evenodd" sketch:type="MSPage">
        <g id="mob" sketch:type="MSArtboardGroup" transform="translate(-46.000000, -240.000000)" fill="#1A1A1A">
            <path d="M46.1150413,299.68595 C46.1150413,309.567603 53.1067769,316.279669 63.7342149,316.279669 C73.9887603,316.279669 81.8195041,308.821818 81.8195041,294.93157 C81.8195041,281.041322 73.6158678,273.86314 63.2680992,273.86314 C59.9120661,273.86314 56.8357025,275.075041 54.505124,277.592066 L54.505124,272.65124 C58.6069421,268.549421 64.8528926,260.811901 64.8528926,252.328595 C64.8528926,244.963967 62.1494215,240.862149 57.3950413,240.862149 C48.0727273,240.862149 46.1150413,248.879339 46.1150413,263.888264 L46.1150413,299.68595 Z M63.174876,277.498843 C70.9123967,277.498843 72.9633058,282.346446 72.9633058,294.93157 C72.9633058,307.516694 70.9123967,312.643967 63.7342149,312.643967 C57.3018182,312.643967 54.505124,307.98281 54.505124,296.796033 L54.505124,291.94843 C54.505124,281.507438 56.7424793,277.498843 63.174876,277.498843 L63.174876,277.498843 Z M57.4882645,244.497851 C59.5391736,244.497851 60.8442975,246.362314 60.8442975,252.048926 C60.8442975,258.667769 57.3950413,264.447603 54.505124,268.176529 L54.505124,264.074711 C54.505124,248.506446 54.8780165,244.497851 57.4882645,244.497851 L57.4882645,244.497851 Z M97.2013223,296.329917 C97.2013223,282.532893 99.625124,277.498843 105.404959,277.498843 C109.227107,277.498843 111.464463,280.109091 111.464463,284.956694 C111.464463,293.346777 103.447273,296.329917 97.2013223,297.168926 L97.2013223,296.329917 Z M125.261488,260.811901 C125.261488,263.888264 127.685289,266.312066 130.761653,266.312066 C133.838017,266.312066 136.355041,263.888264 136.355041,260.811901 C136.355041,257.735537 133.838017,255.218512 130.761653,255.218512 C127.685289,255.218512 125.261488,257.735537 125.261488,260.811901 L125.261488,260.811901 Z M127.389594,306.386856 C129.200067,312.646415 133.73747,316.279669 141.389091,316.279669 C146.073075,316.279669 149.936509,313.666063 152.389421,309.670844 L152.389421,310.593058 C152.389421,314.601653 154.72,316.279669 157.237025,316.279669 C159.847273,316.279669 160.779504,314.974545 160.779504,314.974545 L160.779504,299.033388 C160.779504,281.880331 166.372893,277.12595 172.059504,277.12595 C175.415537,277.12595 177.652893,280.015868 177.652893,288.219504 L177.652893,299.126612 C177.652893,309.75405 182.127603,316.279669 191.54314,316.279669 C197.527726,316.279669 201.620713,312.593476 203.437264,306.655485 C205.920993,313.382817 210.98219,316.279669 218.018512,316.279669 C222.679669,316.279669 226.501818,313.669421 228.832397,309.847273 L228.832397,323.551074 C218.577851,325.601983 210.374215,330.729256 210.374215,340.704132 C210.374215,348.814545 216.526942,351.33157 221.281322,351.33157 C230.790083,351.33157 237.129256,343.687273 237.222479,330.822479 L237.222479,325.974876 C239.086942,325.881653 240.858182,325.881653 242.629421,325.881653 C242.629421,325.881653 243.18876,325.229091 243.18876,324.483306 C243.18876,323.830744 242.815868,322.432397 240.671736,322.432397 C239.459835,322.432397 238.341157,322.432397 237.222479,322.52562 L237.222479,275.168264 C237.222479,275.168264 236.290248,273.86314 233.68,273.86314 C231.90876,273.86314 230.230744,274.702149 229.391736,276.566612 C227.806942,274.981818 225.010248,273.86314 220.255868,273.86314 C210.091178,273.86314 201.995421,279.530218 201.712133,294.13377 C201.454271,294.288591 201.424793,294.465455 201.424793,294.465455 C201.424793,308.821818 196.85686,312.643967 192.661818,312.643967 C188.932893,312.643967 186.415868,309.194711 186.415868,301.923306 L186.415868,288.68562 C186.415868,278.89719 181.008926,273.86314 173.178182,273.86314 C167.305124,273.86314 163.296529,276.380165 160.779504,280.854876 C160.779504,275.354711 158.448926,273.86314 155.931901,273.86314 C153.321653,273.86314 152.389421,275.168264 152.389421,275.168264 L152.389421,294.230293 C152.240187,294.353818 152.202975,294.465455 152.202975,294.465455 C152.202975,308.821818 146.143471,312.643967 142.507769,312.643967 C137.939835,312.643967 134.863471,309.194711 134.863471,301.923306 L134.863471,275.168264 C134.863471,275.168264 133.93124,273.86314 131.320992,273.86314 C128.803967,273.86314 126.473388,275.541157 126.473388,279.549752 L126.473388,295.165712 C126.049393,295.331408 126.007273,295.584132 126.007273,295.584132 C126.007273,307.609917 117.990083,312.643967 110.625455,312.643967 C103.726942,312.643967 98.6928926,308.821818 97.4809917,300.618182 C109.6,300.618182 118.176529,293.719669 118.176529,284.397355 C118.176529,279.549752 115.379835,273.86314 106.896529,273.86314 C96.5487603,273.86314 88.345124,281.320992 88.345124,295.863802 C88.345124,309.194711 96.9216529,316.279669 110.625455,316.279669 C119.424241,316.279669 124.771044,311.731174 127.389594,306.386856 Z M228.832397,296.516364 C228.832397,309.101488 222.679669,312.643967 219.13719,312.643967 C214.569256,312.643967 210.560661,310.499835 210.560661,294.93157 C210.560661,279.363306 214.942149,277.498843 221.094876,277.498843 C224.730579,277.498843 228.832397,280.202314 228.832397,289.897521 L228.832397,296.516364 Z M228.832397,330.636033 C228.832397,344.433058 225.849256,347.695868 221.094876,347.695868 C218.111736,347.695868 215.128595,345.551736 215.128595,340.983802 C215.128595,332.500496 221.281322,328.77157 228.832397,327.093554 L228.832397,330.636033 Z M272.181157,305.652231 C272.087934,310.593058 268.731901,312.643967 262.206281,312.643967 C253.350083,312.643967 248.502479,306.118347 248.502479,298.19438 C248.502479,296.143471 249.061818,294.745124 249.061818,294.745124 C249.061818,294.745124 248.688926,293.626446 246.45157,293.626446 C244.307438,293.626446 242.722645,295.677355 242.722645,299.219835 C242.722645,308.635372 250.180496,316.279669 261.740165,316.279669 C272.27438,316.279669 280.478017,312.73719 280.478017,304.440331 C280.478017,290.083967 254.74843,292.787438 254.74843,282.626116 C254.74843,279.083636 258.477355,277.498843 263.138512,277.498843 C267.240331,277.498843 272.27438,279.642975 272.27438,282.999008 C272.27438,284.490579 271.715041,285.14314 271.715041,285.14314 C271.715041,285.14314 272.27438,286.261818 274.511736,286.261818 C276.376198,286.261818 278.520331,284.956694 278.520331,282.532893 C278.520331,278.244628 272.926942,273.86314 262.76562,273.86314 C252.138182,273.86314 247.290579,277.778512 247.197355,283.558347 C246.917686,298.007934 272.27438,294.838347 272.181157,305.652231 L272.181157,305.652231 Z" id="beings" sketch:type="MSShapeGroup"></path>
        </g>
    </g>
</svg>