<?xml version="1.0" encoding="UTF-8" standalone="no"?>
<svg width="61px" height="30px" viewBox="0 0 61 30" version="1.1" xmlns="http://www.w3.org/2000/svg" xmlns:xlink="http://www.w3.org/1999/xlink" xmlns:sketch="http://www.bohemiancoding.com/sketch/ns">
    <!-- Generator: Sketch 3.4.4 (17249) - http://www.bohemiancoding.com/sketch -->
    <title>beings</title>
    <desc>Created with Sketch.</desc>
    <defs></defs>
    <g id="Page-1" stroke="none" stroke-width="1" fill="none" fill-rule="evenodd" sketch:type="MSPage">
        <g id="beingslab" sketch:type="MSArtboardGroup" transform="translate(-100.000000, -37.000000)" fill="#1A1A1A">
            <g id="Line-+-beings-+-Laboratory" sketch:type="MSLayerGroup" transform="translate(100.000000, 37.000000)">
                <path d="M0.636,15.8 C0.636,18.344 2.436,20.072 5.172,20.072 C7.812,20.072 9.828,18.152 9.828,14.576 C9.828,11 7.716,9.152 5.052,9.152 C4.188,9.152 3.396,9.464 2.796,10.112 L2.796,8.84 C3.852,7.784 5.46,5.792 5.46,3.608 C5.46,1.712 4.764,0.656 3.54,0.656 C1.14,0.656 0.636,2.72 0.636,6.584 L0.636,15.8 Z M5.028,10.088 C7.02,10.088 7.548,11.336 7.548,14.576 C7.548,17.816 7.02,19.136 5.172,19.136 C3.516,19.136 2.796,17.936 2.796,15.056 L2.796,13.808 C2.796,11.12 3.372,10.088 5.028,10.088 L5.028,10.088 Z M3.564,1.592 C4.092,1.592 4.428,2.072 4.428,3.536 C4.428,5.24 3.54,6.728 2.796,7.688 L2.796,6.632 C2.796,2.624 2.892,1.592 3.564,1.592 L3.564,1.592 Z M13.788,14.936 C13.788,11.384 14.412,10.088 15.9,10.088 C16.884,10.088 17.46,10.76 17.46,12.008 C17.46,14.168 15.396,14.936 13.788,15.152 L13.788,14.936 Z M21.012,5.792 C21.012,6.584 21.636,7.208 22.428,7.208 C23.22,7.208 23.868,6.584 23.868,5.792 C23.868,5 23.22,4.352 22.428,4.352 C21.636,4.352 21.012,5 21.012,5.792 L21.012,5.792 Z M21.5598742,17.5251269 C22.0259748,19.1366302 23.1941146,20.072 25.164,20.072 C26.3698769,20.072 27.3645055,19.3991352 27.996,18.3705791 L27.996,18.608 C27.996,19.64 28.596,20.072 29.244,20.072 C29.916,20.072 30.156,19.736 30.156,19.736 L30.156,15.632 C30.156,11.216 31.596,9.992 33.06,9.992 C33.924,9.992 34.5,10.736 34.5,12.848 L34.5,15.656 C34.5,18.392 35.652,20.072 38.076,20.072 C39.6167125,20.072 40.670439,19.1230014 41.138104,17.5942845 C41.7775323,19.3262146 43.0805211,20.072 44.892,20.072 C46.092,20.072 47.076,19.4 47.676,18.416 L47.676,21.944 C45.036,22.472 42.924,23.792 42.924,26.36 C42.924,28.448 44.508,29.096 45.732,29.096 C48.18,29.096 49.812,27.128 49.836,23.816 L49.836,22.568 C50.316,22.544 50.772,22.544 51.228,22.544 C51.228,22.544 51.372,22.376 51.372,22.184 C51.372,22.016 51.276,21.656 50.724,21.656 C50.412,21.656 50.124,21.656 49.836,21.68 L49.836,9.488 C49.836,9.488 49.596,9.152 48.924,9.152 C48.468,9.152 48.036,9.368 47.82,9.848 C47.412,9.44 46.692,9.152 45.468,9.152 C42.851133,9.152 40.7669062,10.610971 40.6939747,14.3706089 C40.6275888,14.4104669 40.62,14.456 40.62,14.456 C40.62,18.152 39.444,19.136 38.364,19.136 C37.404,19.136 36.756,18.248 36.756,16.376 L36.756,12.968 C36.756,10.448 35.364,9.152 33.348,9.152 C31.836,9.152 30.804,9.8 30.156,10.952 C30.156,9.536 29.556,9.152 28.908,9.152 C28.236,9.152 27.996,9.488 27.996,9.488 L27.996,14.3954585 C27.9575801,14.4272596 27.948,14.456 27.948,14.456 C27.948,18.152 26.388,19.136 25.452,19.136 C24.276,19.136 23.484,18.248 23.484,16.376 L23.484,9.488 C23.484,9.488 23.244,9.152 22.572,9.152 C21.924,9.152 21.324,9.584 21.324,10.616 L21.324,14.636279 C21.2148439,14.6789369 21.204,14.744 21.204,14.744 C21.204,17.84 19.14,19.136 17.244,19.136 C15.468,19.136 14.172,18.152 13.86,16.04 C16.98,16.04 19.188,14.264 19.188,11.864 C19.188,10.616 18.468,9.152 16.284,9.152 C13.62,9.152 11.508,11.072 11.508,14.816 C11.508,18.248 13.716,20.072 17.244,20.072 C19.5092195,20.072 20.8857369,18.9010043 21.5598742,17.5251269 Z M47.676,14.984 C47.676,18.224 46.092,19.136 45.18,19.136 C44.004,19.136 42.972,18.584 42.972,14.576 C42.972,10.568 44.1,10.088 45.684,10.088 C46.62,10.088 47.676,10.784 47.676,13.28 L47.676,14.984 Z M47.676,23.768 C47.676,27.32 46.908,28.16 45.684,28.16 C44.916,28.16 44.148,27.608 44.148,26.432 C44.148,24.248 45.732,23.288 47.676,22.856 L47.676,23.768 Z M58.836,17.336 C58.812,18.608 57.948,19.136 56.268,19.136 C53.988,19.136 52.74,17.456 52.74,15.416 C52.74,14.888 52.884,14.528 52.884,14.528 C52.884,14.528 52.788,14.24 52.212,14.24 C51.66,14.24 51.252,14.768 51.252,15.68 C51.252,18.104 53.172,20.072 56.148,20.072 C58.86,20.072 60.972,19.16 60.972,17.024 C60.972,13.328 54.348,14.024 54.348,11.408 C54.348,10.496 55.308,10.088 56.508,10.088 C57.564,10.088 58.86,10.64 58.86,11.504 C58.86,11.888 58.716,12.056 58.716,12.056 C58.716,12.056 58.86,12.344 59.436,12.344 C59.916,12.344 60.468,12.008 60.468,11.384 C60.468,10.28 59.028,9.152 56.412,9.152 C53.676,9.152 52.428,10.16 52.404,11.648 C52.332,15.368 58.86,14.552 58.836,17.336 L58.836,17.336 Z" id="beings" sketch:type="MSShapeGroup"></path>
            </g>
        </g>
    </g>
</svg>